<svg xmlns="http://www.w3.org/2000/svg" xmlns:xlink="http://www.w3.org/1999/xlink" width="348" zoomAndPan="magnify" viewBox="0 0 261 169.5" height="226" preserveAspectRatio="xMidYMid meet" version="1.0"><defs><g/></defs><g fill="#FFF" fill-opacity="1"><g transform="translate(46.315275, 112.277642)"><g><path d="M 34.0625 -2.792969 C 36.203125 3.910156 43.089844 3.722656 42.066406 -4.652344 C 41.324219 -10.238281 39.742188 -17.777344 38.53125 -23.269531 C 43.648438 -26.523438 42.625 -34.902344 35.554688 -35.738281 C 34.902344 -41.324219 34.34375 -55.375 34.25 -54.445312 C 33.878906 -51.375 33.691406 -48.117188 33.597656 -44.953125 C 33.503906 -44.953125 33.503906 -44.953125 33.414062 -45.046875 C 33.039062 -48.675781 32.667969 -52.492188 32.386719 -56.214844 C 32.109375 -59.191406 30.15625 -61.054688 27.457031 -61.242188 C 26.710938 -62.730469 24.851562 -63.847656 23.269531 -63.753906 C 18.519531 -63.660156 16.660156 -57.890625 14.984375 -54.261719 C 12.566406 -48.488281 11.074219 -42.441406 9.773438 -36.296875 C -1.304688 -34.621094 -1.304688 -24.476562 4.652344 -22.988281 C 4.746094 -22.710938 4.652344 -22.335938 4.558594 -22.152344 C 5.304688 -22.152344 6.234375 -22.242188 7.074219 -22.335938 C 5.675781 -16.9375 4.746094 -11.539062 4.003906 -6.050781 C 2.792969 2.699219 14.332031 4.003906 15.078125 -4.46875 L 15.636719 -8.65625 C 15.636719 -8.65625 17.21875 -18.148438 18.429688 -22.710938 L 19.265625 -22.710938 C 17.496094 -17.21875 16.660156 -11.539062 16.195312 -5.957031 C 16.101562 -4.839844 17.683594 -4.839844 17.683594 -5.957031 C 18.148438 -11.632812 19.171875 -17.125 20.570312 -22.710938 L 27.828125 -22.800781 C 28.574219 -19.453125 32.296875 -3.445312 34.0625 -2.792969 Z M 20.289062 -34.808594 C 21.128906 -39.183594 22.242188 -42.90625 23.734375 -48.117188 C 24.664062 -43.835938 25.128906 -37.507812 25.5 -35.179688 C 24.199219 -35.085938 21.59375 -34.996094 20.289062 -34.808594 Z M 20.289062 -34.808594 "/></g></g></g><g fill="#FFF" fill-opacity="1"><g transform="translate(81.493062, 112.277642)"><g><path d="M 2.140625 -49.140625 C 1.953125 -48.953125 1.953125 -48.675781 2.140625 -48.582031 C 4.1875 -49.511719 6.234375 -50.351562 8.375 -51.003906 C 14.519531 -53.144531 20.847656 -54.539062 27.175781 -55.933594 C 30.804688 -56.773438 34.527344 -57.703125 38.160156 -58.632812 C 37.320312 -58.632812 36.484375 -58.632812 35.644531 -58.542969 C 31.644531 -58.261719 27.828125 -57.515625 24.011719 -56.773438 L 21.871094 -56.214844 C 15.171875 -54.445312 8.285156 -52.398438 2.140625 -49.140625 Z M 54.351562 -11.261719 C 55.46875 -12.097656 56.214844 -13.402344 56.121094 -15.078125 C 55.75 -20.382812 53.980469 -28.574219 46.8125 -27.082031 C 45.789062 -26.804688 44.859375 -26.339844 43.835938 -26.058594 L 40.207031 -24.941406 C 37.972656 -24.199219 35.738281 -23.359375 33.503906 -22.523438 C 32.109375 -22.058594 30.714844 -21.5 29.316406 -20.941406 L 21.40625 -17.871094 C 19.359375 -17.03125 17.3125 -16.195312 15.261719 -15.261719 L 14.984375 -15.078125 C 14.984375 -15.261719 14.984375 -15.355469 14.984375 -15.449219 L 14.425781 -21.5 C 17.03125 -22.800781 19.542969 -24.105469 22.242188 -25.222656 C 26.617188 -27.082031 30.992188 -28.480469 35.460938 -29.691406 C 37.695312 -30.246094 40.019531 -30.714844 42.253906 -31.085938 C 44.394531 -31.550781 46.441406 -31.457031 48.398438 -32.386719 C 50.070312 -33.226562 51.1875 -35.273438 50.816406 -37.042969 C 50.628906 -37.972656 50.070312 -38.902344 49.234375 -39.367188 C 49.140625 -39.367188 49.140625 -39.367188 49.046875 -39.460938 C 48.953125 -39.835938 48.769531 -40.207031 48.582031 -40.578125 C 48.488281 -40.765625 48.398438 -41.042969 48.210938 -41.324219 C 46.90625 -43.558594 44.671875 -43.648438 42.347656 -43.558594 C 41.230469 -43.464844 40.207031 -43.371094 39.089844 -43.183594 L 37.878906 -42.90625 C 34.902344 -42.066406 31.832031 -41.230469 28.851562 -40.484375 C 23.546875 -38.53125 18.429688 -36.296875 13.214844 -34.0625 C 13.214844 -34.527344 12.65625 -37.878906 12.566406 -38.808594 L 12.75 -38.996094 C 15.636719 -40.207031 18.613281 -41.324219 21.59375 -42.347656 C 22.617188 -42.8125 31.832031 -45.605469 36.578125 -46.90625 C 36.761719 -46.90625 36.949219 -47 37.136719 -47.09375 C 39.277344 -47.652344 41.417969 -48.304688 43.464844 -48.953125 L 48.117188 -50.351562 C 48.488281 -52.210938 48.210938 -54.167969 47.558594 -56.121094 C 47.09375 -56.492188 46.535156 -56.960938 46.070312 -57.332031 L 44.582031 -57.890625 C 44.023438 -58.074219 43.371094 -58.167969 42.71875 -58.261719 C 37.878906 -56.960938 33.039062 -55.65625 28.105469 -54.539062 C 21.777344 -53.234375 15.449219 -51.839844 9.308594 -49.699219 C 7.351562 -49.046875 5.304688 -48.304688 3.351562 -47.464844 C 3.257812 -47.1875 3.070312 -46.90625 2.976562 -46.722656 C 1.675781 -45.605469 0.835938 -44.207031 0.652344 -42.347656 C 0.464844 -40.765625 1.023438 -38.996094 2.140625 -37.785156 L 3.257812 -27.175781 L 4.375 -16.007812 C 4.652344 -12.75 4.839844 -9.398438 5.398438 -6.234375 C 4.558594 -3.816406 6.144531 -1.023438 8.46875 -0.09375 C 8.375 0.371094 8.375 0.746094 8.5625 1.210938 C 9.308594 2.792969 10.980469 2.886719 12.472656 2.605469 C 12.84375 2.605469 13.402344 2.511719 13.402344 2.511719 C 13.308594 2.605469 18.613281 1.023438 19.730469 0.277344 L 19.824219 0.1875 C 20.847656 -0.277344 21.871094 -0.652344 22.894531 -1.117188 C 23.082031 -1.210938 23.359375 -1.304688 23.546875 -1.394531 L 23.640625 -1.394531 C 26.710938 -2.699219 29.875 -3.816406 33.039062 -4.933594 C 39.648438 -7.257812 46.535156 -9.027344 53.421875 -10.332031 C 53.980469 -10.425781 54.261719 -10.796875 54.351562 -11.261719 Z M 31.832031 -30.992188 L 31.921875 -30.714844 C 31.363281 -30.527344 30.898438 -30.339844 30.339844 -30.0625 C 25.6875 -28.199219 20.847656 -26.433594 16.289062 -24.105469 C 17.03125 -24.757812 17.589844 -25.6875 17.777344 -26.710938 C 19.542969 -27.175781 21.3125 -27.734375 23.175781 -28.292969 C 26.058594 -29.222656 28.945312 -30.0625 31.832031 -30.992188 Z M 11.261719 1.210938 C 13.121094 0.746094 14.890625 0 16.660156 -0.652344 C 18.429688 -1.210938 20.101562 -1.863281 21.777344 -2.511719 L 21.777344 -2.328125 C 20.382812 -1.582031 18.988281 -0.835938 17.496094 -0.09375 C 16.847656 0.277344 16.101562 0.652344 15.355469 1.023438 C 15.261719 1.117188 15.171875 1.117188 15.078125 1.117188 C 14.796875 1.210938 12.65625 1.394531 11.261719 1.210938 Z M 11.261719 1.210938 "/></g></g></g><g fill="#FFF" fill-opacity="1"><g transform="translate(128.862404, 112.277642)"><g><path d="M 53.050781 -35.460938 C 53.328125 -37.507812 52.769531 -39.183594 51.28125 -40.300781 C 50.070312 -41.230469 48.769531 -42.253906 47.464844 -43.183594 C 47.28125 -43.929688 46.90625 -44.671875 46.164062 -45.230469 C 37.042969 -51.375 27.828125 -57.703125 17.589844 -60.960938 C 17.496094 -60.960938 17.402344 -61.054688 17.3125 -61.054688 C 16.660156 -61.332031 16.007812 -61.519531 15.355469 -61.796875 C 15.171875 -61.984375 14.890625 -62.171875 14.519531 -62.171875 C 11.449219 -62.730469 5.863281 -63.9375 4.09375 -60.496094 C 3.070312 -58.355469 4.09375 -55.75 5.863281 -54.261719 C 5.304688 -53.421875 4.652344 -52.769531 3.910156 -52.210938 C 4.652344 -49.046875 5.304688 -45.789062 5.957031 -42.625 C 5.398438 -42.625 4.839844 -42.625 4.28125 -42.53125 C 1.488281 -42.53125 0.371094 -37.878906 2.976562 -36.203125 C 3.816406 -35.644531 4.839844 -35.085938 5.769531 -34.714844 L 3.628906 -34.4375 C 4.652344 -34.0625 5.675781 -33.691406 6.699219 -33.414062 C 7.074219 -33.320312 7.257812 -33.039062 7.257812 -32.761719 C 7.445312 -32.761719 7.632812 -32.761719 7.816406 -32.761719 L 8.375 -29.503906 C 9.121094 -25.128906 9.867188 -20.753906 10.609375 -16.378906 L 11.449219 -10.238281 C 11.632812 -8.191406 11.449219 -5.957031 11.914062 -4.003906 C 11.914062 -2.976562 12.84375 -2.328125 13.589844 -2.511719 C 13.679688 -1.953125 13.867188 -1.488281 14.148438 -1.023438 C 15.261719 0.277344 17.125 0.1875 18.335938 -0.835938 C 19.265625 -1.582031 19.917969 -2.511719 20.476562 -3.628906 C 20.476562 -4.09375 20.476562 -4.652344 20.382812 -5.210938 C 20.660156 -9.773438 20.195312 -14.519531 19.917969 -19.078125 C 19.730469 -23.359375 19.359375 -27.640625 18.894531 -31.832031 C 21.3125 -31.738281 23.824219 -31.550781 26.246094 -31.457031 C 26.710938 -30.621094 27.269531 -29.691406 27.828125 -28.851562 L 27.828125 -28.757812 C 28.386719 -27.828125 28.851562 -26.898438 29.316406 -25.875 C 31.085938 -22.429688 33.597656 -16.289062 34.621094 -13.867188 C 36.484375 -9.585938 38.34375 -5.210938 40.019531 -0.835938 C 40.390625 -0.652344 40.949219 -0.835938 41.230469 -1.117188 C 41.230469 -1.023438 41.324219 -1.023438 41.417969 -1.023438 C 42.253906 -0.652344 43.089844 -0.652344 43.929688 -0.746094 C 45.511719 -0.09375 47.652344 -0.558594 47.929688 -2.605469 C 48.675781 -8.65625 45.417969 -14.519531 42.90625 -19.824219 C 40.949219 -23.824219 38.71875 -27.640625 36.203125 -31.363281 C 40.578125 -30.992188 44.953125 -30.621094 49.328125 -30.339844 C 50.816406 -30.15625 52.585938 -31.738281 52.769531 -33.503906 Z M 15.261719 -49.699219 L 14.984375 -51.1875 C 22.988281 -49.328125 30.433594 -45.324219 37.601562 -40.390625 L 28.574219 -41.507812 C 26.433594 -43.277344 23.359375 -45.789062 20.570312 -44.023438 C 20.101562 -43.648438 19.824219 -43.089844 19.730469 -42.625 C 19.265625 -42.71875 18.707031 -42.71875 18.242188 -42.8125 C 17.871094 -44.765625 17.402344 -46.722656 16.9375 -48.675781 C 16.847656 -49.511719 15.914062 -49.511719 15.449219 -49.046875 C 15.355469 -49.234375 15.355469 -49.511719 15.261719 -49.699219 Z M 21.871094 -7.816406 C 22.242188 -10.050781 22.988281 -10.980469 22.710938 -14.332031 C 22.242188 -19.917969 21.777344 -25.5 20.847656 -30.898438 L 20.101562 -30.898438 C 21.21875 -23.269531 21.5 -15.542969 21.871094 -7.816406 Z M 21.871094 -7.816406 "/></g></g></g><g fill="#FFF" fill-opacity="1"><g transform="translate(175.301083, 112.277642)"><g><path d="M 35.179688 -39.925781 C 34.714844 -42.71875 34.15625 -45.605469 33.320312 -48.398438 C 32.386719 -51.09375 31.085938 -53.703125 29.78125 -56.214844 C 29.316406 -57.050781 28.386719 -57.238281 27.640625 -56.960938 C 26.992188 -58.167969 26.058594 -59.75 24.851562 -60.496094 C 23.734375 -61.148438 22.152344 -61.148438 20.847656 -60.867188 C 19.636719 -60.960938 18.429688 -60.589844 17.21875 -60.125 C 14.238281 -59.472656 12.007812 -56.585938 10.425781 -53.144531 C 10.238281 -53.144531 9.957031 -53.234375 9.679688 -53.144531 C 10.050781 -54.167969 10.425781 -55.191406 10.890625 -56.214844 C 11.261719 -57.144531 11.820312 -58.074219 12.378906 -59.007812 C 12.472656 -59.191406 12.285156 -59.285156 12.191406 -59.101562 C 10.609375 -57.050781 9.398438 -54.820312 8.46875 -52.398438 C 8.375 -52.304688 8.375 -52.210938 8.285156 -52.210938 C 2.046875 -41.789062 0.371094 -29.503906 2.234375 -17.589844 C 3.164062 -12.097656 5.027344 -6.515625 9.398438 -2.792969 C 11.914062 -0.746094 15.355469 0.371094 18.429688 -0.1875 C 19.453125 -0.09375 20.476562 -0.09375 21.5 -0.1875 C 24.105469 -0.558594 26.246094 -1.769531 28.015625 -3.535156 C 29.316406 -4.652344 30.433594 -5.957031 31.457031 -7.351562 C 34.527344 -11.726562 35.367188 -17.402344 35.832031 -22.523438 C 36.484375 -28.386719 36.113281 -34.15625 35.179688 -39.925781 Z M 23.546875 -12.84375 C 23.269531 -11.726562 22.800781 -10.703125 22.242188 -9.679688 C 21.683594 -8.65625 20.847656 -7.816406 19.730469 -7.445312 C 15.730469 -6.234375 12.472656 -10.050781 10.980469 -13.121094 C 11.914062 -12.566406 13.121094 -12.285156 14.238281 -12.566406 C 14.613281 -12.65625 14.984375 -12.84375 15.261719 -13.03125 C 13.867188 -19.078125 13.121094 -25.410156 13.402344 -31.738281 C 13.589844 -33.878906 13.773438 -36.019531 14.148438 -38.160156 C 14.238281 -38.253906 14.238281 -38.34375 14.332031 -38.53125 C 15.078125 -42.347656 16.289062 -46.164062 18.054688 -49.605469 C 18.429688 -50.257812 18.800781 -51.003906 19.359375 -51.375 C 14.054688 -40.207031 13.867188 -26.523438 16.472656 -14.425781 C 16.9375 -15.261719 17.03125 -16.195312 16.847656 -17.21875 C 15.730469 -24.105469 15.636719 -31.273438 16.472656 -38.160156 C 16.9375 -41.695312 17.777344 -45.140625 18.800781 -48.488281 C 19.078125 -49.421875 19.453125 -50.628906 20.011719 -51.652344 L 20.476562 -51.652344 C 20.570312 -51.652344 20.753906 -51.5625 20.847656 -51.46875 C 21.21875 -50.816406 21.5 -50.070312 21.777344 -49.421875 C 22.429688 -47.839844 22.988281 -46.164062 23.546875 -44.488281 C 23.824219 -43.183594 24.011719 -41.789062 24.292969 -40.390625 C 25.035156 -35.832031 25.316406 -31.085938 25.6875 -26.433594 C 25.6875 -21.871094 25.128906 -17.21875 23.546875 -12.84375 Z M 23.546875 -12.84375 "/></g></g></g><g fill="#FFF" fill-opacity="1"><g transform="translate(99.533071, 135.792586)"><g><path d="M 3.828125 0.140625 C 2.742188 0.140625 1.914062 -0.160156 1.34375 -0.765625 C 0.769531 -1.378906 0.484375 -2.242188 0.484375 -3.359375 C 0.484375 -3.910156 0.566406 -4.40625 0.734375 -4.84375 C 0.910156 -5.28125 1.148438 -5.644531 1.453125 -5.9375 C 1.765625 -6.238281 2.128906 -6.46875 2.546875 -6.625 C 2.960938 -6.78125 3.414062 -6.859375 3.90625 -6.859375 C 4.1875 -6.859375 4.441406 -6.835938 4.671875 -6.796875 C 4.910156 -6.753906 5.113281 -6.703125 5.28125 -6.640625 C 5.457031 -6.585938 5.601562 -6.53125 5.71875 -6.46875 C 5.84375 -6.414062 5.929688 -6.375 5.984375 -6.34375 L 5.546875 -5.125 C 5.335938 -5.238281 5.09375 -5.332031 4.8125 -5.40625 C 4.539062 -5.476562 4.234375 -5.515625 3.890625 -5.515625 C 3.660156 -5.515625 3.429688 -5.476562 3.203125 -5.40625 C 2.984375 -5.332031 2.785156 -5.207031 2.609375 -5.03125 C 2.441406 -4.863281 2.304688 -4.644531 2.203125 -4.375 C 2.097656 -4.101562 2.046875 -3.773438 2.046875 -3.390625 C 2.046875 -3.078125 2.078125 -2.785156 2.140625 -2.515625 C 2.210938 -2.253906 2.320312 -2.023438 2.46875 -1.828125 C 2.625 -1.628906 2.820312 -1.472656 3.0625 -1.359375 C 3.3125 -1.253906 3.613281 -1.203125 3.96875 -1.203125 C 4.1875 -1.203125 4.378906 -1.210938 4.546875 -1.234375 C 4.722656 -1.265625 4.878906 -1.296875 5.015625 -1.328125 C 5.148438 -1.367188 5.269531 -1.410156 5.375 -1.453125 C 5.476562 -1.492188 5.570312 -1.535156 5.65625 -1.578125 L 6.078125 -0.375 C 5.859375 -0.238281 5.554688 -0.117188 5.171875 -0.015625 C 4.785156 0.0859375 4.335938 0.140625 3.828125 0.140625 Z M 3.828125 0.140625 "/></g></g></g><g fill="#FFF" fill-opacity="1"><g transform="translate(105.659141, 135.792586)"><g><path d="M 2.734375 -6.78125 C 3.742188 -6.78125 4.515625 -6.597656 5.046875 -6.234375 C 5.578125 -5.878906 5.84375 -5.328125 5.84375 -4.578125 C 5.84375 -4.109375 5.734375 -3.722656 5.515625 -3.421875 C 5.304688 -3.128906 5 -2.898438 4.59375 -2.734375 C 4.726562 -2.566406 4.867188 -2.375 5.015625 -2.15625 C 5.160156 -1.945312 5.304688 -1.722656 5.453125 -1.484375 C 5.597656 -1.242188 5.738281 -1 5.875 -0.75 C 6.007812 -0.5 6.132812 -0.25 6.25 0 L 4.5625 0 C 4.4375 -0.21875 4.3125 -0.4375 4.1875 -0.65625 C 4.0625 -0.882812 3.929688 -1.101562 3.796875 -1.3125 C 3.671875 -1.53125 3.539062 -1.734375 3.40625 -1.921875 C 3.28125 -2.117188 3.15625 -2.296875 3.03125 -2.453125 L 2.28125 -2.453125 L 2.28125 0 L 0.78125 0 L 0.78125 -6.609375 C 1.101562 -6.671875 1.441406 -6.710938 1.796875 -6.734375 C 2.148438 -6.765625 2.460938 -6.78125 2.734375 -6.78125 Z M 2.828125 -5.5 C 2.710938 -5.5 2.613281 -5.492188 2.53125 -5.484375 C 2.445312 -5.472656 2.363281 -5.46875 2.28125 -5.46875 L 2.28125 -3.640625 L 2.703125 -3.640625 C 3.273438 -3.640625 3.679688 -3.710938 3.921875 -3.859375 C 4.171875 -4.003906 4.296875 -4.242188 4.296875 -4.578125 C 4.296875 -4.910156 4.171875 -5.144531 3.921875 -5.28125 C 3.671875 -5.425781 3.304688 -5.5 2.828125 -5.5 Z M 2.828125 -5.5 "/></g></g></g><g fill="#FFF" fill-opacity="1"><g transform="translate(111.968805, 135.792586)"><g><path d="M 0.78125 0 L 0.78125 -6.703125 L 5.296875 -6.703125 L 5.296875 -5.4375 L 2.28125 -5.4375 L 2.28125 -4.125 L 4.96875 -4.125 L 4.96875 -2.875 L 2.28125 -2.875 L 2.28125 -1.265625 L 5.515625 -1.265625 L 5.515625 0 Z M 0.78125 0 "/></g></g></g><g fill="#FFF" fill-opacity="1"><g transform="translate(117.689029, 135.792586)"><g><path d="M 5.265625 0 C 5.191406 -0.226562 5.109375 -0.460938 5.015625 -0.703125 C 4.929688 -0.953125 4.847656 -1.203125 4.765625 -1.453125 L 2.15625 -1.453125 C 2.070312 -1.203125 1.984375 -0.953125 1.890625 -0.703125 C 1.804688 -0.460938 1.726562 -0.226562 1.65625 0 L 0.09375 0 C 0.34375 -0.71875 0.582031 -1.382812 0.8125 -2 C 1.039062 -2.613281 1.257812 -3.191406 1.46875 -3.734375 C 1.6875 -4.273438 1.898438 -4.785156 2.109375 -5.265625 C 2.316406 -5.753906 2.535156 -6.234375 2.765625 -6.703125 L 4.203125 -6.703125 C 4.421875 -6.234375 4.632812 -5.753906 4.84375 -5.265625 C 5.0625 -4.785156 5.28125 -4.273438 5.5 -3.734375 C 5.71875 -3.191406 5.9375 -2.613281 6.15625 -2 C 6.382812 -1.382812 6.625 -0.71875 6.875 0 Z M 3.453125 -5.1875 C 3.421875 -5.09375 3.375 -4.957031 3.3125 -4.78125 C 3.25 -4.613281 3.171875 -4.421875 3.078125 -4.203125 C 2.992188 -3.984375 2.898438 -3.738281 2.796875 -3.46875 C 2.703125 -3.207031 2.601562 -2.9375 2.5 -2.65625 L 4.40625 -2.65625 C 4.300781 -2.9375 4.203125 -3.207031 4.109375 -3.46875 C 4.015625 -3.738281 3.921875 -3.984375 3.828125 -4.203125 C 3.742188 -4.421875 3.671875 -4.613281 3.609375 -4.78125 C 3.546875 -4.957031 3.492188 -5.09375 3.453125 -5.1875 Z M 3.453125 -5.1875 "/></g></g></g><g fill="#FFF" fill-opacity="1"><g transform="translate(124.52048, 135.792586)"><g><path d="M 5.75 -6.703125 L 5.75 -5.421875 L 3.71875 -5.421875 L 3.71875 0 L 2.21875 0 L 2.21875 -5.421875 L 0.1875 -5.421875 L 0.1875 -6.703125 Z M 5.75 -6.703125 "/></g></g></g><g fill="#FFF" fill-opacity="1"><g transform="translate(130.318009, 135.792586)"><g><path d="M 0.78125 0 L 0.78125 -6.703125 L 5.296875 -6.703125 L 5.296875 -5.4375 L 2.28125 -5.4375 L 2.28125 -4.125 L 4.96875 -4.125 L 4.96875 -2.875 L 2.28125 -2.875 L 2.28125 -1.265625 L 5.515625 -1.265625 L 5.515625 0 Z M 0.78125 0 "/></g></g></g><g fill="#FFF" fill-opacity="1"><g transform="translate(136.038233, 135.792586)"><g/></g></g><g fill="#FFF" fill-opacity="1"><g transform="translate(138.221862, 135.792586)"><g><path d="M 5.75 -6.703125 L 5.75 -5.421875 L 3.71875 -5.421875 L 3.71875 0 L 2.21875 0 L 2.21875 -5.421875 L 0.1875 -5.421875 L 0.1875 -6.703125 Z M 5.75 -6.703125 "/></g></g></g><g fill="#FFF" fill-opacity="1"><g transform="translate(144.019391, 135.792586)"><g><path d="M 0.78125 0 L 0.78125 -6.703125 L 5.296875 -6.703125 L 5.296875 -5.4375 L 2.28125 -5.4375 L 2.28125 -4.125 L 4.96875 -4.125 L 4.96875 -2.875 L 2.28125 -2.875 L 2.28125 -1.265625 L 5.515625 -1.265625 L 5.515625 0 Z M 0.78125 0 "/></g></g></g><g fill="#FFF" fill-opacity="1"><g transform="translate(149.739612, 135.792586)"><g><path d="M 2.609375 -1.15625 C 2.816406 -1.15625 2.988281 -1.171875 3.125 -1.203125 C 3.269531 -1.234375 3.382812 -1.28125 3.46875 -1.34375 C 3.550781 -1.40625 3.609375 -1.476562 3.640625 -1.5625 C 3.671875 -1.644531 3.6875 -1.738281 3.6875 -1.84375 C 3.6875 -2.0625 3.582031 -2.242188 3.375 -2.390625 C 3.164062 -2.535156 2.8125 -2.691406 2.3125 -2.859375 C 2.09375 -2.941406 1.875 -3.03125 1.65625 -3.125 C 1.4375 -3.226562 1.238281 -3.351562 1.0625 -3.5 C 0.882812 -3.65625 0.738281 -3.835938 0.625 -4.046875 C 0.519531 -4.265625 0.46875 -4.53125 0.46875 -4.84375 C 0.46875 -5.15625 0.523438 -5.429688 0.640625 -5.671875 C 0.765625 -5.921875 0.929688 -6.132812 1.140625 -6.3125 C 1.347656 -6.488281 1.601562 -6.625 1.90625 -6.71875 C 2.21875 -6.8125 2.5625 -6.859375 2.9375 -6.859375 C 3.394531 -6.859375 3.785156 -6.804688 4.109375 -6.703125 C 4.441406 -6.609375 4.710938 -6.503906 4.921875 -6.390625 L 4.484375 -5.203125 C 4.296875 -5.296875 4.085938 -5.378906 3.859375 -5.453125 C 3.628906 -5.535156 3.351562 -5.578125 3.03125 -5.578125 C 2.675781 -5.578125 2.414062 -5.523438 2.25 -5.421875 C 2.09375 -5.316406 2.015625 -5.164062 2.015625 -4.96875 C 2.015625 -4.84375 2.046875 -4.738281 2.109375 -4.65625 C 2.171875 -4.570312 2.253906 -4.492188 2.359375 -4.421875 C 2.460938 -4.359375 2.582031 -4.296875 2.71875 -4.234375 C 2.863281 -4.179688 3.019531 -4.128906 3.1875 -4.078125 C 3.53125 -3.941406 3.832031 -3.8125 4.09375 -3.6875 C 4.351562 -3.5625 4.566406 -3.414062 4.734375 -3.25 C 4.898438 -3.082031 5.023438 -2.882812 5.109375 -2.65625 C 5.191406 -2.4375 5.234375 -2.164062 5.234375 -1.84375 C 5.234375 -1.21875 5.015625 -0.726562 4.578125 -0.375 C 4.140625 -0.03125 3.484375 0.140625 2.609375 0.140625 C 2.304688 0.140625 2.035156 0.117188 1.796875 0.078125 C 1.554688 0.046875 1.34375 0.00390625 1.15625 -0.046875 C 0.976562 -0.0976562 0.820312 -0.148438 0.6875 -0.203125 C 0.5625 -0.265625 0.453125 -0.320312 0.359375 -0.375 L 0.78125 -1.578125 C 0.976562 -1.460938 1.222656 -1.363281 1.515625 -1.28125 C 1.816406 -1.195312 2.179688 -1.15625 2.609375 -1.15625 Z M 2.609375 -1.15625 "/></g></g></g><g fill="#FFF" fill-opacity="1"><g transform="translate(155.227927, 135.792586)"><g><path d="M 5.75 -6.703125 L 5.75 -5.421875 L 3.71875 -5.421875 L 3.71875 0 L 2.21875 0 L 2.21875 -5.421875 L 0.1875 -5.421875 L 0.1875 -6.703125 Z M 5.75 -6.703125 "/></g></g></g></svg>