<svg xmlns="http://www.w3.org/2000/svg" width="348" viewBox="0 0 261 169.5" height="226" version="1.0"><path d="M80.378 109.485c2.14 6.703 9.027 6.515 8.004-1.86-.743-5.586-2.325-13.125-3.535-18.617 5.117-3.254 4.093-11.633-2.977-12.469-.652-5.586-1.211-19.636-1.305-18.707-.37 3.07-.558 6.328-.652 9.493-.094 0-.094 0-.184-.094-.375-3.63-.746-7.446-1.027-11.168-.277-2.977-2.23-4.84-4.93-5.028-.746-1.488-2.605-2.605-4.187-2.511-4.75.093-6.61 5.863-8.285 9.492-2.418 5.773-3.91 11.82-5.211 17.965C45.01 77.657 45.01 87.8 50.968 89.289c.093.278 0 .653-.094.836.746 0 1.676-.09 2.515-.183-1.398 5.398-2.328 10.797-3.07 16.285-1.21 8.75 10.328 10.055 11.074 1.582l.559-4.188s1.582-9.492 2.793-14.054h.836c-1.77 5.492-2.606 11.172-3.07 16.754-.094 1.117 1.488 1.117 1.488 0 .465-5.676 1.488-11.168 2.887-16.754l7.257-.09c.746 3.348 4.47 19.355 6.235 20.008ZM66.604 77.469c.84-4.375 1.953-8.098 3.446-13.309.93 4.282 1.394 10.61 1.765 12.938-1.3.094-3.906.184-5.21.371Zm0 0" fill="#FFF"/><path d="M83.634 63.137c-.188.188-.188.465 0 .559 2.047-.93 4.093-1.77 6.234-2.422 6.145-2.14 12.473-3.535 18.8-4.93 3.63-.84 7.352-1.77 10.985-2.7-.84 0-1.676 0-2.515.09-4 .282-7.817 1.028-11.633 1.77l-2.14.559c-6.7 1.77-13.587 3.816-19.731 7.074Zm52.21 37.879c1.118-.836 1.864-2.14 1.77-3.816-.37-5.305-2.14-13.497-9.308-12.004-1.024.277-1.954.742-2.977 1.023l-3.629 1.117c-2.234.742-4.469 1.582-6.703 2.418-1.395.465-2.79 1.024-4.188 1.582l-7.91 3.07c-2.047.84-4.093 1.676-6.144 2.61l-.278.184v-.372l-.558-6.05c2.605-1.301 5.117-2.606 7.816-3.723 4.375-1.86 8.75-3.258 13.219-4.469a89.164 89.164 0 0 1 6.793-1.394c2.14-.465 4.187-.371 6.145-1.301 1.671-.84 2.789-2.887 2.417-4.656-.187-.93-.746-1.86-1.582-2.325-.093 0-.093 0-.187-.093-.094-.375-.277-.746-.465-1.117-.094-.188-.183-.465-.371-.747-1.305-2.234-3.54-2.324-5.863-2.234-1.117.094-2.14.188-3.258.375l-1.211.277c-2.977.84-6.047 1.676-9.027 2.422-5.305 1.953-10.422 4.188-15.637 6.422 0-.465-.559-3.816-.649-4.746l.184-.187a142.999 142.999 0 0 1 8.844-3.352c1.023-.465 10.238-3.258 14.984-4.559.184 0 .371-.093.559-.187 2.14-.559 4.281-1.211 6.328-1.86l4.652-1.398c.371-1.86.094-3.816-.558-5.77-.465-.37-1.024-.84-1.489-1.21l-1.488-.559c-.559-.184-1.21-.277-1.863-.371-4.84 1.3-9.68 2.605-14.613 3.723-6.329 1.304-12.657 2.699-18.797 4.84-1.957.652-4.004 1.394-5.957 2.234-.094.277-.282.558-.375.742-1.301 1.117-2.141 2.516-2.325 4.375-.187 1.582.371 3.352 1.489 4.562l1.117 10.61 1.117 11.168c.277 3.258.465 6.61 1.023 9.773-.84 2.418.747 5.211 3.07 6.14-.093.466-.093.84.095 1.306.746 1.582 2.418 1.675 3.91 1.394.37 0 .93-.094.93-.094-.094.094 5.21-1.488 6.328-2.234l.093-.09c1.024-.465 2.047-.84 3.07-1.305.188-.093.465-.187.653-.277h.094c3.07-1.305 6.234-2.422 9.398-3.539 6.61-2.324 13.496-4.094 20.383-5.398.559-.094.84-.465.93-.93Zm-22.519-19.73.09.277c-.559.187-1.024.375-1.582.652-4.652 1.863-9.492 3.629-14.05 5.957a4.632 4.632 0 0 0 1.487-2.605c1.766-.465 3.536-1.024 5.399-1.582 2.883-.93 5.77-1.77 8.656-2.7Zm-20.57 32.203c1.86-.465 3.629-1.211 5.398-1.864 1.77-.558 3.442-1.21 5.117-1.86v.185c-1.394.746-2.789 1.492-4.28 2.234a42.99 42.99 0 0 1-2.141 1.117c-.094.094-.184.094-.278.094-.281.094-2.422.277-3.816.094Zm0 0" fill="#FFF"/><path d="M181.913 76.817c.278-2.047-.281-3.723-1.77-4.84-1.21-.93-2.511-1.953-3.816-2.883-.183-.746-.558-1.488-1.3-2.047-9.122-6.144-18.336-12.472-28.575-15.73-.094 0-.187-.094-.277-.094-.652-.277-1.305-.465-1.957-.742a1.17 1.17 0 0 0-.836-.375c-3.07-.559-8.656-1.766-10.426 1.676-1.023 2.14 0 4.746 1.77 6.234a8.236 8.236 0 0 1-1.953 2.05c.742 3.165 1.394 6.423 2.046 9.587-.558 0-1.117 0-1.675.093-2.793 0-3.91 4.653-1.305 6.329.84.558 1.863 1.117 2.793 1.488l-2.14.277c1.023.375 2.046.746 3.07 1.024.375.093.558.375.558.652h.559l.558 3.258c.746 4.375 1.493 8.75 2.235 13.125l.84 6.14c.183 2.047 0 4.282.464 6.235 0 1.027.93 1.676 1.676 1.492a4.01 4.01 0 0 0 .559 1.488c1.113 1.301 2.976 1.211 4.187.188.93-.746 1.582-1.676 2.141-2.793 0-.465 0-1.024-.094-1.582.278-4.563-.187-9.309-.465-13.867-.187-4.282-.558-8.563-1.023-12.754 2.418.093 4.93.28 7.351.375a39.66 39.66 0 0 0 1.583 2.605v.094c.558.93 1.023 1.86 1.488 2.883 1.77 3.445 4.281 9.586 5.304 12.007 1.864 4.282 3.723 8.657 5.399 13.032.371.183.93 0 1.21-.282 0 .094.095.094.188.094.836.371 1.672.371 2.512.278 1.582.652 3.723.187 4-1.86.746-6.05-2.512-11.914-5.023-17.219a95.502 95.502 0 0 0-6.703-11.539c4.375.371 8.75.743 13.125 1.024 1.488.183 3.257-1.399 3.44-3.164Zm-37.789-14.239-.277-1.488c8.004 1.86 15.449 5.863 22.617 10.797l-9.027-1.117c-2.141-1.77-5.215-4.281-8.004-2.516a2.474 2.474 0 0 0-.84 1.399c-.465-.094-1.024-.094-1.488-.188-.372-1.953-.84-3.91-1.305-5.863-.09-.836-1.024-.836-1.488-.371-.094-.188-.094-.465-.188-.653Zm6.61 41.883c.37-2.234 1.117-3.164.84-6.515-.47-5.586-.934-11.168-1.864-16.567h-.746c1.117 7.63 1.398 15.356 1.77 23.082Zm0 0" fill="#FFF"/><path d="M210.48 72.352c-.464-2.793-1.023-5.68-1.859-8.473-.933-2.695-2.234-5.304-3.539-7.816-.465-.836-1.394-1.024-2.14-.746-.649-1.207-1.582-2.79-2.79-3.535-1.117-.653-2.699-.653-4.003-.372-1.211-.093-2.418.278-3.63.743-2.98.652-5.21 3.539-6.792 6.98-.188 0-.469-.09-.746 0 .37-1.023.746-2.047 1.21-3.07.372-.93.93-1.86 1.489-2.793.094-.184-.094-.278-.188-.094-1.582 2.05-2.792 4.281-3.722 6.703-.094.094-.094.188-.184.188-6.238 10.422-7.914 22.707-6.05 34.62.93 5.493 2.792 11.075 7.164 14.798 2.515 2.047 5.957 3.164 9.03 2.605 1.024.094 2.048.094 3.071 0 2.606-.371 4.746-1.582 6.516-3.348 1.3-1.117 2.418-2.421 3.441-3.816 3.07-4.375 3.91-10.05 4.375-15.172.652-5.863.281-11.633-.652-17.402Zm-11.632 27.082c-.277 1.117-.746 2.14-1.305 3.164-.558 1.023-1.394 1.863-2.511 2.234-4 1.211-7.258-2.605-8.75-5.675.933.554 2.14.835 3.257.554.375-.09.746-.277 1.024-.465-1.395-6.046-2.14-12.379-1.86-18.707.188-2.14.372-4.28.747-6.422.09-.093.09-.183.183-.37.746-3.817 1.957-7.633 3.723-11.075.375-.652.746-1.398 1.304-1.77-5.304 11.169-5.492 24.852-2.886 36.95.465-.836.558-1.77.375-2.793-1.117-6.887-1.211-14.055-.375-20.942.465-3.535 1.304-6.98 2.328-10.328.277-.933.652-2.14 1.21-3.164h.466c.093 0 .277.09.37.184.372.652.653 1.398.93 2.047.653 1.582 1.211 3.258 1.77 4.933.277 1.305.465 2.7.746 4.098.742 4.559 1.023 9.305 1.395 13.957 0 4.563-.559 9.215-2.141 13.59ZM103.361 135.933c-1.086 0-1.914-.3-2.484-.906-.574-.613-.86-1.477-.86-2.594 0-.55.082-1.047.25-1.484.176-.438.415-.8.72-1.094a3.15 3.15 0 0 1 1.093-.687 3.82 3.82 0 0 1 1.36-.235c.28 0 .534.024.765.063.238.043.441.093.61.156.175.055.32.11.437.172.125.055.21.094.265.125l-.437 1.219a3.348 3.348 0 0 0-.734-.282 3.684 3.684 0 0 0-.922-.109c-.23 0-.461.039-.688.11a1.53 1.53 0 0 0-.594.374 1.823 1.823 0 0 0-.406.657c-.105.273-.156.601-.156.984 0 .312.031.605.094.875.07.262.18.492.328.687.156.2.351.356.594.47.25.105.55.155.906.155.219 0 .41-.007.578-.03.176-.032.332-.063.469-.095a3.802 3.802 0 0 0 .64-.25l.422 1.204c-.219.136-.523.257-.906.359a5.313 5.313 0 0 1-1.344.156ZM108.394 129.011c1.007 0 1.78.184 2.312.547.531.356.797.906.797 1.656 0 .47-.11.856-.328 1.157-.211.293-.516.523-.922.687.133.168.273.36.422.578.144.211.289.434.437.672.145.242.285.485.422.735.133.25.258.5.375.75h-1.687l-.375-.657a13.223 13.223 0 0 0-.391-.656 7.45 7.45 0 0 0-.39-.61 6.253 6.253 0 0 0-.376-.53h-.75v2.453h-1.5v-6.61a8.11 8.11 0 0 1 1.016-.125c.352-.031.664-.047.938-.047Zm.093 1.282c-.117 0-.215.007-.297.015a1.828 1.828 0 0 1-.25.016v1.828h.422c.57 0 .977-.07 1.219-.219.25-.144.375-.383.375-.719 0-.332-.125-.566-.375-.703-.25-.144-.617-.218-1.094-.218ZM112.75 135.793v-6.704h4.516v1.266h-3.016v1.313h2.688v1.25h-2.688v1.609h3.234v1.266ZM122.955 135.793c-.075-.227-.157-.461-.25-.704-.086-.25-.168-.5-.25-.75h-2.61c-.086.25-.172.5-.265.75-.086.243-.164.477-.235.704h-1.562c.25-.72.488-1.383.719-2 .226-.614.445-1.192.656-1.735.219-.539.43-1.05.64-1.531.207-.488.426-.969.657-1.438h1.437c.219.47.43.95.64 1.438a40.062 40.062 0 0 1 1.313 3.266c.227.617.469 1.28.719 2Zm-1.813-5.188c-.031.094-.078.23-.14.406-.063.168-.141.36-.235.578-.086.22-.18.465-.281.735-.094.262-.195.531-.297.812h1.906c-.105-.28-.203-.55-.297-.812a11.33 11.33 0 0 0-.28-.735c-.087-.218-.157-.41-.22-.578a8.162 8.162 0 0 0-.156-.406ZM130.27 129.09v1.28h-2.03v5.423h-1.5v-5.422h-2.032v-1.282ZM131.1 135.793v-6.704h4.515v1.266h-3.016v1.313h2.688v1.25h-2.688v1.609h3.235v1.266ZM143.972 129.09v1.28h-2.031v5.423h-1.5v-5.422h-2.032v-1.282ZM144.8 135.793v-6.704h4.516v1.266h-3.015v1.313h2.687v1.25h-2.687v1.609h3.234v1.266ZM152.349 134.636c.207 0 .379-.015.516-.047a.903.903 0 0 0 .343-.14.484.484 0 0 0 .172-.219.786.786 0 0 0 .047-.281c0-.219-.105-.399-.312-.547-.211-.145-.563-.3-1.063-.469a15.382 15.382 0 0 1-.656-.265 2.638 2.638 0 0 1-.594-.375 1.917 1.917 0 0 1-.437-.547c-.106-.219-.157-.485-.157-.797 0-.313.055-.586.172-.828a2.004 2.004 0 0 1 1.266-1.047c.312-.094.656-.14 1.031-.14.457 0 .848.054 1.172.155.332.094.602.2.812.313l-.437 1.187a4.629 4.629 0 0 0-.625-.25 2.48 2.48 0 0 0-.828-.125c-.356 0-.617.055-.781.157a.515.515 0 0 0-.235.453c0 .125.031.23.094.312a.965.965 0 0 0 .25.235c.102.062.223.125.36.187.144.055.3.106.468.156.344.137.645.266.906.391.258.125.473.274.641.438.164.168.29.367.375.593.082.22.125.493.125.813 0 .625-.219 1.117-.656 1.469-.438.343-1.094.515-1.969.515-.305 0-.574-.023-.813-.062a4.377 4.377 0 0 1-1.11-.281c-.124-.063-.233-.118-.327-.172l.422-1.204c.195.118.441.215.734.297.301.086.664.125 1.094.125ZM160.978 129.09v1.28h-2.031v5.423h-1.5v-5.422h-2.032v-1.282Zm0 0" fill="#FFF"/></svg>